<?xml version="1.0" encoding="utf-8"?>
<!-- Generator: Adobe Illustrator 18.1.1, SVG Export Plug-In . SVG Version: 6.00 Build 0)  -->
<svg width="51" height="62" version="1.1" id="Слой_1" xmlns="http://www.w3.org/2000/svg" xmlns:xlink="http://www.w3.org/1999/xlink" x="0px" y="0px"
	 viewBox="0 0 55 70" enable-background="new 0 0 55 70" xml:space="preserve">
<g>
	<g>
		<g>
			<path fill="#545454" d="M50.138,70H12.212c-2.681,0-4.862-2.171-4.862-4.84V21.746c0-0.535,0.435-0.968,0.972-0.968
				s0.972,0.433,0.972,0.968V65.16c0,1.601,1.309,2.904,2.917,2.904h37.926c1.609,0,2.917-1.303,2.917-2.904V11.192
				c0-1.601-1.309-2.904-2.917-2.904H21.472c-0.537,0-0.972-0.433-0.972-0.968s0.435-0.968,0.972-0.968h28.665
				c2.681,0,4.862,2.171,4.862,4.84V65.16C55,67.829,52.819,70,50.138,70z"/>
		</g>
	</g>
	<g>
		<g>
			<path fill="#545454" d="M47.828,48h-3.404c-0.537,0-0.972-0.465-0.972-1s0.435-1,0.972-1h3.404c0.537,0,0.972,0.465,0.972,1
				S48.365,48,47.828,48z"/>
		</g>
	</g>
	<g>
		<g>
			<path fill="#545454" d="M38.347,48h-3.404c-0.537,0-0.972-0.465-0.972-1s0.435-1,0.972-1h3.404c0.537,0,0.972,0.465,0.972,1
				S38.884,48,38.347,48z"/>
		</g>
	</g>
	<g>
		<g>
			<path fill="#545454" d="M47.828,40H34.943c-0.537,0-0.972-0.465-0.972-1s0.435-1,0.972-1h12.885c0.537,0,0.972,0.465,0.972,1
				S48.365,40,47.828,40z"/>
		</g>
	</g>
	<g>
		<g>
			<path fill="#545454" d="M46.126,32.125H16.223c-1.475,0-2.674-1.194-2.674-2.662v-7.562c0-0.535,0.435-0.968,0.972-0.968
				c0.537,0,0.972,0.433,0.972,0.968v7.562c0,0.4,0.327,0.726,0.729,0.726h29.903c0.402,0,0.729-0.326,0.729-0.726V15.911
				c0-0.4-0.327-0.726-0.729-0.726h-24.06c-0.537,0-0.972-0.433-0.972-0.968c0-0.535,0.435-0.968,0.972-0.968h24.06
				c1.475,0,2.674,1.194,2.674,2.662v13.553C48.801,30.931,47.601,32.125,46.126,32.125z"/>
		</g>
	</g>
	<g>
		<g>
			<path fill="#545454" d="M28.136,62h-3.404c-0.537,0-0.972-0.465-0.972-1s0.435-1,0.972-1h3.404c0.537,0,0.972,0.465,0.972,1
				S28.673,62,28.136,62z"/>
		</g>
		<g>
			<path fill="#545454" d="M28.136,55h-3.404c-0.537,0-0.972-0.465-0.972-1s0.435-1,0.972-1h3.404c0.537,0,0.972,0.465,0.972,1
				S28.673,55,28.136,55z"/>
		</g>
		<g>
			<path fill="#545454" d="M28.136,48h-3.404c-0.537,0-0.972-0.465-0.972-1s0.435-1,0.972-1h3.404c0.537,0,0.972,0.465,0.972,1
				S28.673,48,28.136,48z"/>
		</g>
		<g>
			<path fill="#545454" d="M28.136,40h-3.404c-0.537,0-0.972-0.465-0.972-1s0.435-1,0.972-1h3.404c0.537,0,0.972,0.465,0.972,1
				S28.673,40,28.136,40z"/>
		</g>
	</g>
	<g>
		<g>
			<path fill="#545454" d="M17.925,62h-3.404c-0.537,0-0.972-0.465-0.972-1s0.435-1,0.972-1h3.404c0.537,0,0.972,0.465,0.972,1
				S18.462,62,17.925,62z"/>
		</g>
		<g>
			<path fill="#545454" d="M17.925,55h-3.404c-0.537,0-0.972-0.465-0.972-1s0.435-1,0.972-1h3.404c0.537,0,0.972,0.465,0.972,1
				S18.462,55,17.925,55z"/>
		</g>
		<g>
			<path fill="#545454" d="M17.925,48h-3.404c-0.537,0-0.972-0.465-0.972-1s0.435-1,0.972-1h3.404c0.537,0,0.972,0.465,0.972,1
				S18.462,48,17.925,48z"/>
		</g>
		<g>
			<path fill="#545454" d="M17.925,40h-3.404c-0.537,0-0.972-0.465-0.972-1s0.435-1,0.972-1h3.404c0.537,0,0.972,0.465,0.972,1
				S18.462,40,17.925,40z"/>
		</g>
	</g>
	<g>
		<g>
			<line fill="#FFFFFF" x1="42.5" y1="28" x2="40.5" y2="28"/>
		</g>
		<g>
			<path fill="#545454" d="M42.236,29h-1.702c-0.537,0-0.972-0.465-0.972-1s0.435-1,0.972-1h1.702c0.537,0,0.972,0.465,0.972,1
				S42.774,29,42.236,29z"/>
		</g>
	</g>
	<g>
		<g>
			<line fill="#FFFFFF" x1="42.5" y1="18" x2="40.5" y2="18"/>
		</g>
		<g>
			<path fill="#545454" d="M42.236,19h-1.702c-0.537,0-0.972-0.465-0.972-1s0.435-1,0.972-1h1.702c0.537,0,0.972,0.465,0.972,1
				S42.774,19,42.236,19z"/>
		</g>
	</g>
	<g>
		<g>
			<line fill="#FFFFFF" x1="44.5" y1="21" x2="44.5" y2="26"/>
		</g>
		<g>
			<path fill="#545454" d="M44.5,26.68c-0.537,0-1-0.433-1-0.968v-5.566c0-0.535,0.463-0.968,1-0.968s1,0.433,1,0.968v5.566
				C45.5,26.247,45.037,26.68,44.5,26.68z"/>
		</g>
	</g>
	<g>
		<g>
			<line fill="#FFFFFF" x1="38.5" y1="21" x2="38.5" y2="26"/>
		</g>
		<g>
			<path fill="#545454" d="M38.5,26.68c-0.537,0-1-0.433-1-0.968v-5.566c0-0.535,0.463-0.968,1-0.968s1,0.433,1,0.968v5.566
				C39.5,26.247,39.037,26.68,38.5,26.68z"/>
		</g>
	</g>
	<g>
		<g>
			<path fill="#545454" d="M47.828,61.651H34.923c-0.537,0-0.972-0.433-0.972-0.968V53.14c0-0.535,0.435-0.968,0.972-0.968h12.905
				c0.537,0,0.972,0.433,0.972,0.968v7.543C48.801,61.217,48.365,61.651,47.828,61.651z M35.895,59.715h10.96v-5.607h-10.96V59.715z
				"/>
		</g>
	</g>
	<g>
		<g>
			<path fill="#545454" d="M11.679,23.252C5.239,23.252,0,18.036,0,11.626S5.239,0,11.679,0s11.679,5.215,11.679,11.626
				S18.119,23.252,11.679,23.252z M11.679,1.936c-5.367,0-9.734,4.347-9.734,9.69c0,5.343,4.367,9.69,9.734,9.69
				s9.734-4.347,9.734-9.69C21.413,6.283,17.046,1.936,11.679,1.936z"/>
		</g>
	</g>
	<g>
		<g>
			<path fill="#D52729" d="M6.501,10.77h1.307V5.647h3.662c1.387,0,2.291,0.064,2.726,0.177c1.291,0.337,2.275,1.494,2.275,3.292
				c0,2.056-1.323,3.132-2.517,3.389c-0.548,0.112-1.339,0.16-2.372,0.16h-1.484v0.964h5.888v1.895h-5.888v1.381H7.808v-1.381H6.501
				v-1.895h1.307v-0.964H6.501V10.77z M10.099,7.558v3.196h1.242c0.903,0,1.5-0.064,1.807-0.177
				c0.581-0.209,0.968-0.771,0.968-1.429c0-0.819-0.549-1.381-1.274-1.51c-0.274-0.048-0.823-0.08-1.646-0.08H10.099z"/>
		</g>
	</g>
</g>
</svg>
