<?xml version="1.0" encoding="utf-8"?>
<!-- Generator: Adobe Illustrator 18.1.1, SVG Export Plug-In . SVG Version: 6.00 Build 0)  -->
<svg width="51" height="62" version="1.1" id="Слой_1" xmlns="http://www.w3.org/2000/svg" xmlns:xlink="http://www.w3.org/1999/xlink" x="0px" y="0px"
	 viewBox="0 0 57 70" enable-background="new 0 0 57 70" xml:space="preserve">
<g>
	<g>
		<path fill="#545454" d="M51.669,70H5.331C2.392,70,0,67.612,0,64.677V20.108c0-0.284,0.114-0.556,0.315-0.756L19.539,0.309
			C19.739,0.111,20.009,0,20.291,0h31.378C54.608,0,57,2.388,57,5.323v59.354C57,67.612,54.608,70,51.669,70z M2.133,20.552v44.125
			c0,1.761,1.435,3.194,3.199,3.194h46.337c1.764,0,3.199-1.433,3.199-3.194V5.323c0-1.761-1.435-3.194-3.199-3.194H20.73
			L2.133,20.552z"/>
	</g>
	<g>
		<path fill="#545454" d="M16.025,21.173H1.066c-0.432,0-0.821-0.26-0.986-0.659c-0.165-0.399-0.072-0.857,0.235-1.161L19.539,0.309
			c0.306-0.303,0.764-0.392,1.161-0.227c0.398,0.165,0.656,0.553,0.656,0.983V15.85C21.357,18.785,18.965,21.173,16.025,21.173z
			 M3.655,19.044h12.37c1.764,0,3.199-1.433,3.199-3.194V3.621L3.655,19.044z"/>
	</g>
	<g>
		<path fill="#545454" d="M49.034,13H34.639c-0.589,0-1.066-0.412-1.066-1s0.477-1,1.066-1h14.395c0.589,0,1.066,0.412,1.066,1
			S49.623,13,49.034,13z"/>
	</g>
	<g>
		<path fill="#545454" d="M50.1,31H11.181c-0.589,0-1.066-0.412-1.066-1s0.477-1,1.066-1H50.1c0.589,0,1.066,0.412,1.066,1
			S50.689,31,50.1,31z"/>
	</g>
	<g>
		<path fill="#545454" d="M50.1,39H11.181c-0.589,0-1.066-0.412-1.066-1s0.477-1,1.066-1H50.1c0.589,0,1.066,0.412,1.066,1
			S50.689,39,50.1,39z"/>
	</g>
	<g>
		<path fill="#545454" d="M24.243,47H11.181c-0.589,0-1.066-0.412-1.066-1s0.477-1,1.066-1h13.062c0.589,0,1.066,0.412,1.066,1
			S24.832,47,24.243,47z"/>
	</g>
	<g>
		<path fill="#545454" d="M43.17,21h-8.53c-0.589,0-1.066-0.912-1.066-1.5s0.477-1.5,1.066-1.5h8.53c0.589,0,1.066,0.912,1.066,1.5
			S43.758,21,43.17,21z"/>
	</g>
	<g>
		<path fill="#545454" d="M41.947,64.432c-0.173,0-0.344-0.017-0.509-0.052c-0.914-0.192-1.498-0.855-1.968-1.387
			c-0.212-0.241-0.413-0.468-0.583-0.585c-0.188-0.129-0.485-0.239-0.8-0.357c-0.656-0.245-1.472-0.549-1.964-1.302
			c-0.492-0.753-0.442-1.621-0.402-2.319c0.019-0.335,0.037-0.651-0.005-0.875c-0.038-0.202-0.166-0.477-0.301-0.768
			c-0.299-0.643-0.671-1.444-0.478-2.356c0.192-0.913,0.856-1.496,1.39-1.964c0.241-0.212,0.469-0.412,0.585-0.582
			c0.129-0.188,0.24-0.484,0.357-0.799c0.245-0.655,0.55-1.47,1.304-1.961c0.586-0.382,1.237-0.425,1.676-0.425
			c0.222,0,0.438,0.012,0.646,0.024c0.326,0.019,0.677,0.033,0.877-0.005c0.203-0.038,0.478-0.165,0.77-0.3
			c0.537-0.248,1.145-0.53,1.851-0.53c0.173,0,0.344,0.017,0.509,0.052c0.914,0.192,1.498,0.855,1.968,1.387
			c0.212,0.241,0.413,0.468,0.583,0.585c0.188,0.129,0.485,0.239,0.8,0.357c0.656,0.245,1.472,0.549,1.964,1.302
			c0.492,0.753,0.442,1.621,0.402,2.319c-0.019,0.335-0.037,0.651,0.005,0.875c0.038,0.202,0.166,0.477,0.301,0.768
			c0.299,0.643,0.671,1.444,0.478,2.356c-0.192,0.913-0.856,1.496-1.39,1.964c-0.241,0.212-0.469,0.412-0.585,0.582
			c-0.129,0.188-0.24,0.484-0.357,0.799c-0.245,0.655-0.55,1.47-1.304,1.961c-0.586,0.382-1.237,0.425-1.676,0.425
			c-0.222,0-0.438-0.012-0.646-0.024c-0.325-0.018-0.677-0.033-0.877,0.005c-0.203,0.038-0.478,0.165-0.77,0.3
			C43.26,64.15,42.652,64.432,41.947,64.432z M40.25,50.828c-0.321,0-0.455,0.043-0.511,0.08c-0.167,0.109-0.336,0.56-0.471,0.922
			c-0.15,0.401-0.32,0.855-0.596,1.257c-0.267,0.389-0.623,0.702-0.936,0.977c-0.312,0.274-0.665,0.585-0.712,0.804
			c-0.046,0.22,0.152,0.646,0.326,1.022c0.176,0.378,0.375,0.807,0.462,1.271c0.09,0.48,0.062,0.963,0.038,1.39
			c-0.022,0.386-0.05,0.867,0.059,1.034c0.109,0.167,0.561,0.335,0.924,0.471c0.401,0.15,0.856,0.319,1.259,0.595
			c0.39,0.267,0.703,0.622,0.979,0.935c0.274,0.311,0.585,0.664,0.806,0.711c0.213,0.045,0.632-0.145,1.024-0.326
			c0.379-0.175,0.809-0.375,1.273-0.462c0.223-0.042,0.466-0.062,0.745-0.062c0.223,0,0.438,0.012,0.647,0.024
			c0.176,0.01,0.352,0.021,0.524,0.021c0.321,0,0.455-0.043,0.511-0.08c0.167-0.109,0.336-0.56,0.471-0.922
			c0.15-0.401,0.32-0.855,0.596-1.257c0.267-0.389,0.623-0.702,0.936-0.977c0.312-0.274,0.665-0.585,0.712-0.804
			c0.046-0.22-0.152-0.646-0.326-1.022c-0.176-0.378-0.375-0.807-0.462-1.271c-0.09-0.48-0.062-0.963-0.038-1.39
			c0.022-0.386,0.05-0.867-0.059-1.034c-0.109-0.167-0.561-0.335-0.924-0.471c-0.401-0.15-0.856-0.319-1.259-0.595
			c-0.39-0.267-0.703-0.622-0.979-0.935c-0.274-0.311-0.585-0.664-0.806-0.711c-0.212-0.045-0.632,0.144-1.024,0.326
			c-0.379,0.175-0.809,0.375-1.273,0.462c-0.223,0.042-0.466,0.062-0.745,0.062c-0.223,0-0.438-0.012-0.647-0.024
			C40.598,50.838,40.421,50.828,40.25,50.828z"/>
	</g>
	<g>
		
			<ellipse transform="matrix(0.9786 0.2056 -0.2056 0.9786 12.4709 -7.677)" fill="#D52729" cx="43.17" cy="56.16" rx="3.557" ry="3.552"/>
		<path fill="#D52729" d="M43.173,60.245c-0.283,0-0.567-0.03-0.846-0.088c-2.207-0.464-3.625-2.634-3.161-4.838
			c0.396-1.88,2.078-3.244,3.999-3.244c0.283,0,0.567,0.03,0.846,0.088c2.207,0.464,3.625,2.634,3.161,4.838
			C46.776,58.881,45.094,60.245,43.173,60.245z M43.166,53.139c-1.42,0-2.663,1.009-2.956,2.399
			c-0.343,1.629,0.705,3.234,2.337,3.577c0.206,0.043,0.417,0.065,0.626,0.065c1.42,0,2.663-1.009,2.956-2.399
			c0.343-1.629-0.705-3.234-2.337-3.577C43.586,53.161,43.375,53.139,43.166,53.139z"/>
	</g>
</g>
</svg>
