<?xml version="1.0" encoding="utf-8"?>
<!-- Generator: Adobe Illustrator 18.1.1, SVG Export Plug-In . SVG Version: 6.00 Build 0)  -->
<svg width="51" height="62" version="1.1" id="Слой_1" xmlns="http://www.w3.org/2000/svg" xmlns:xlink="http://www.w3.org/1999/xlink" x="0px" y="0px"
	 viewBox="0 0 55 70" enable-background="new 0 0 55 70" xml:space="preserve">
<g>
	<g>
		<g>
			<path fill="#545454" d="M27.8,68.819c-0.171,0-0.342-0.041-0.499-0.123l-15.103-7.923C5.171,57.086,0.779,49.545,1.009,41.559
				L1.944,9.015C1.958,8.553,2.26,8.149,2.697,8.008l24.775-7.957c0.213-0.068,0.443-0.068,0.656,0l24.775,7.957
				c0.438,0.141,0.739,0.545,0.753,1.007l0.936,32.543c0.09,3.134-0.322,5.569-1.379,8.142c-0.228,0.556-0.861,0.82-1.412,0.59
				c-0.552-0.231-0.813-0.868-0.585-1.425c0.945-2.301,1.297-4.399,1.215-7.244L51.516,9.852L27.8,2.235L4.083,9.852L3.17,41.622
				c-0.206,7.155,3.73,13.913,10.026,17.216L27.8,66.499l5.548-2.91c0.53-0.277,1.182-0.07,1.458,0.464
				c0.275,0.534,0.069,1.193-0.46,1.471l-6.047,3.172C28.142,68.778,27.971,68.819,27.8,68.819z"/>
		</g>
	</g>
	<g>
		<g>
			<path fill="#545454" d="M43.017,70c-7.159,0-12.983-5.874-12.983-13.095c0-7.221,5.824-13.095,12.983-13.095S56,49.684,56,56.905
				C56,64.126,50.176,70,43.017,70z M43.017,45.99c-5.966,0-10.821,4.896-10.821,10.914s4.854,10.915,10.821,10.915
				c5.967,0,10.821-4.896,10.821-10.915S48.984,45.99,43.017,45.99z"/>
		</g>
	</g>
	<g>
		<g>
			<path fill="#D52729" d="M42.067,61.855c-0.277,0-0.553-0.106-0.764-0.319l-4.781-4.822c-0.422-0.426-0.422-1.116,0-1.542
				c0.422-0.426,1.107-0.426,1.529,0l4.016,4.051l5.916-5.967c0.423-0.426,1.107-0.426,1.529,0c0.422,0.426,0.422,1.116,0,1.542
				l-6.68,6.738C42.621,61.749,42.344,61.855,42.067,61.855z"/>
		</g>
	</g>
	<g>
		<g>
			<line fill="#FFFFFF" x1="9.152" y1="14.858" x2="27.394" y2="9.12"/>
			<path fill="#545454" d="M9.152,15.949c-0.461,0-0.887-0.299-1.032-0.766c-0.178-0.575,0.14-1.186,0.71-1.366l18.242-5.738
				c0.57-0.18,1.176,0.142,1.354,0.716c0.178,0.575-0.14,1.186-0.71,1.366L9.474,15.899C9.367,15.933,9.258,15.949,9.152,15.949z"/>
		</g>
		<g>
			<line fill="#FFFFFF" x1="9.152" y1="23.036" x2="23.43" y2="18.553"/>
			<path fill="#545454" d="M9.152,24.127c-0.461,0-0.888-0.299-1.032-0.767c-0.177-0.575,0.141-1.186,0.711-1.365l14.278-4.483
				c0.57-0.179,1.176,0.142,1.354,0.717c0.177,0.575-0.141,1.186-0.711,1.365L9.473,24.077C9.366,24.111,9.258,24.127,9.152,24.127z
				"/>
		</g>
		<g>
			<line fill="#FFFFFF" x1="9.152" y1="31.214" x2="19.466" y2="27.985"/>
			<path fill="#545454" d="M9.152,32.305c-0.461,0-0.888-0.3-1.032-0.767c-0.177-0.575,0.142-1.186,0.712-1.365l10.313-3.229
				c0.57-0.178,1.176,0.143,1.353,0.718c0.177,0.575-0.142,1.186-0.712,1.365L9.472,32.256C9.366,32.289,9.258,32.305,9.152,32.305z
				"/>
		</g>
		<g>
			<line fill="#FFFFFF" x1="9.152" y1="39.392" x2="15.501" y2="37.418"/>
			<path fill="#545454" d="M9.152,40.483c-0.462,0-0.89-0.301-1.033-0.77c-0.176-0.575,0.144-1.186,0.715-1.363l6.349-1.974
				c0.571-0.178,1.176,0.145,1.352,0.721c0.176,0.575-0.144,1.186-0.715,1.363l-6.349,1.974C9.364,40.467,9.257,40.483,9.152,40.483
				z"/>
		</g>
		<g>
			<line fill="#FFFFFF" x1="9.152" y1="47.57" x2="11.537" y2="46.851"/>
			<path fill="#545454" d="M9.152,48.661c-0.465,0-0.895-0.305-1.035-0.778c-0.171-0.577,0.154-1.184,0.726-1.357l2.385-0.719
				c0.572-0.173,1.174,0.155,1.345,0.732c0.171,0.577-0.154,1.184-0.726,1.357l-2.385,0.719C9.358,48.646,9.254,48.661,9.152,48.661
				z"/>
		</g>
	</g>
</g>
</svg>
