<?xml version="1.0" encoding="utf-8"?>
<!-- Generator: Adobe Illustrator 18.1.1, SVG Export Plug-In . SVG Version: 6.00 Build 0)  -->
<svg width="13" height="13" version="1.1" id="Слой_1" xmlns="http://www.w3.org/2000/svg" xmlns:xlink="http://www.w3.org/1999/xlink" x="0px" y="0px"
	 viewBox="0 0 13 13" enable-background="new 0 0 13 13" xml:space="preserve">
<g id="Icon_17_">
	<g>
		<defs>
			<path id="SVGID_1_" d="M12.152,0H0.848C0.38,0,0,0.38,0,0.848v11.304C0,12.62,0.38,13,0.848,13h11.304
				C12.62,13,13,12.62,13,12.152V0.848C13,0.38,12.62,0,12.152,0z"/>
		</defs>
		<clipPath id="SVGID_2_">
			<use xlink:href="#SVGID_1_"  overflow="visible"/>
		</clipPath>
		<g clip-path="url(#SVGID_2_)">
			<path fill="#545454" d="M11.661,0H1.339C0.601,0,0,0.601,0,1.339v10.321C0,12.399,0.601,13,1.339,13h10.321
				C12.399,13,13,12.399,13,11.661V1.339C13,0.601,12.399,0,11.661,0z M1.339,1.13h10.321c0.115,0,0.209,0.094,0.209,0.209v9.737
				L10.233,9.03c-0.086-0.124-0.224-0.201-0.376-0.21c-0.15-0.011-0.299,0.051-0.399,0.164L7.542,11.1L4.777,6.969
				c-0.098-0.123-0.252-0.19-0.41-0.186C4.208,6.79,4.062,6.873,3.976,7.005L1.13,11.003V1.339C1.13,1.224,1.224,1.13,1.339,1.13z"
				/>
			<circle fill="#545454" cx="8.478" cy="4.522" r="1.978"/>
		</g>
	</g>
</g>
</svg>
