<?xml version="1.0" encoding="utf-8"?>
<!-- Generator: Adobe Illustrator 18.1.1, SVG Export Plug-In . SVG Version: 6.00 Build 0)  -->
<svg width="14" height="12" version="1.1" id="Слой_1" xmlns="http://www.w3.org/2000/svg" xmlns:xlink="http://www.w3.org/1999/xlink" x="0px" y="0px"
	 viewBox="0 0 13 11" enable-background="new 0 0 13 11" xml:space="preserve">
<g>
	<path fill="#545454" d="M11.068,0.827c0.613,0,1.11,0.506,1.11,1.13v7.088c0,0.624-0.497,1.13-1.11,1.13H1.932
		c-0.613,0-1.11-0.506-1.11-1.13V1.956c0-0.624,0.497-1.13,1.11-1.13H11.068 M11.068,0H1.932c-1.06,0-1.923,0.878-1.923,1.956v7.088
		C0.009,10.122,0.872,11,1.932,11h9.136c1.06,0,1.923-0.878,1.923-1.956V1.956C12.991,0.878,12.128,0,11.068,0L11.068,0z"/>
</g>
<g>
	<path fill="#545454" d="M6.5,7.642c-0.089,0-0.178-0.03-0.252-0.089L0.154,2.645c-0.176-0.142-0.205-0.402-0.066-0.581
		c0.139-0.178,0.394-0.21,0.571-0.068l5.846,4.708l5.843-4.543c0.179-0.138,0.433-0.104,0.57,0.077
		c0.136,0.181,0.102,0.441-0.076,0.579L6.747,7.557C6.674,7.614,6.587,7.642,6.5,7.642z"/>
</g>
</svg>
