<?xml version="1.0" encoding="utf-8"?>
<!-- Generator: Adobe Illustrator 18.1.0, SVG Export Plug-In . SVG Version: 6.00 Build 0)  -->
<svg version="1.1" id="Layer_1" xmlns="http://www.w3.org/2000/svg" xmlns:xlink="http://www.w3.org/1999/xlink" x="0px" y="0px"
	 viewBox="0 0 60 60" enable-background="new 0 0 60 60" xml:space="preserve">
<g>
	<polygon fill-rule="evenodd" clip-rule="evenodd" fill="#E31E24" points="0,0 60,0 60,60 0,60 0,0 	"/>
	<path fill="#FFFFFF" d="M24.052,36.71h30.636v1.478H24.052V36.71L24.052,36.71z M37.393,31.942
		c-0.452,0.584-0.957,1.025-1.516,1.328c-0.561,0.302-1.163,0.455-1.808,0.455c-1.079,0-1.975-0.355-2.689-1.064
		c-0.713-0.708-1.071-1.597-1.071-2.668c0-1.077,0.335-1.967,1.008-2.673c0.673-0.706,1.508-1.059,2.511-1.059
		c0.376,0,0.724,0.056,1.041,0.17c0.317,0.114,0.599,0.284,0.848,0.513v-0.485h1.386v2.376h-1.127
		c-0.312-0.393-0.622-0.668-0.927-0.828c-0.305-0.16-0.67-0.239-1.097-0.239c-0.571,0-1.026,0.201-1.366,0.602
		c-0.34,0.401-0.51,0.942-0.51,1.622c0,0.625,0.188,1.145,0.566,1.564c0.376,0.419,0.848,0.63,1.414,0.63
		c0.439,0,0.83-0.089,1.168-0.264c0.338-0.175,0.693-0.477,1.071-0.909L37.393,31.942L37.393,31.942z M46.065,32.064h0.99v1.478
		h-2.757V32.78c-0.297,0.302-0.635,0.533-1.016,0.69c-0.378,0.16-0.779,0.239-1.206,0.239c-1.051,0-1.912-0.35-2.587-1.048
		c-0.673-0.698-1.01-1.587-1.01-2.668c0-1.051,0.343-1.932,1.026-2.645c0.683-0.713,1.541-1.071,2.572-1.071
		c0.421,0,0.815,0.079,1.18,0.234c0.368,0.157,0.714,0.393,1.041,0.711v-0.762h2.757v1.478h-0.99V32.064L46.065,32.064z
		 M40.277,30.008c0,0.625,0.19,1.132,0.569,1.526c0.378,0.394,0.868,0.592,1.468,0.592c0.586,0,1.071-0.201,1.462-0.599
		c0.388-0.399,0.584-0.904,0.584-1.518c0-0.614-0.198-1.125-0.589-1.528c-0.391-0.404-0.876-0.604-1.457-0.604
		c-0.599,0-1.089,0.198-1.468,0.594C40.467,28.865,40.277,29.378,40.277,30.008L40.277,30.008z M51.412,30.165v0.718v1.181h0.99
		v1.478h-0.99h-1.767h-0.99v-1.478h0.99v-4.128h-0.99v-1.478h2.757v0.961v0.062v0.234c0.99-1.2,2.102-1.258,3.275-1.258v2.376
		c-0.462,0-0.924,0-1.386,0V27.97C52.336,27.919,51.412,29.402,51.412,30.165L51.412,30.165z M51.412,32.064L51.412,32.064
		L51.412,32.064z M21.795,38.188h-2.861V36.71l0,0l1.647-3.351l-2.366-5.423h-0.884v-1.478h3.613v1.478H20l1.526,3.643l1.582-3.643
		h-0.914v-1.478h3.547v1.478h-0.871l-4.189,8.774h1.115V38.188L21.795,38.188z M7.08,27.421c0.327-0.366,0.688-0.65,1.081-0.848
		c0.394-0.198,0.785-0.297,1.17-0.297c0.487,0,0.896,0.107,1.231,0.32c0.335,0.213,0.589,0.528,0.764,0.944
		c0.335-0.432,0.701-0.749,1.092-0.955c0.393-0.206,0.838-0.31,1.333-0.31c0.774,0,1.343,0.201,1.709,0.599
		c0.363,0.399,0.546,1.023,0.546,1.874v3.316h0.99v0.284v1.194h-2.711v-1.478l0,0v-2.514c0-0.614-0.091-1.033-0.272-1.254
		s-0.493-0.33-0.932-0.33c-0.297,0-0.576,0.063-0.833,0.193c-0.259,0.129-0.503,0.325-0.736,0.589v3.316h1.005v1.478H9.806v-1.478
		l0,0v-2.514c0-0.63-0.091-1.051-0.272-1.264c-0.18-0.213-0.498-0.32-0.947-0.32c-0.307,0-0.592,0.086-0.851,0.261
		c-0.243,0.16-0.461,0.394-0.657,0.705v3.131h0.975v1.478H7.08H5.313l0,0v-1.478l0,0v-0.402v-3.727l0,0v-0.015v-0.439v-1.023l0,0
		H7.08V27.421L7.08,27.421z M5.313,36.71h11.684v1.478H5.313V36.71L5.313,36.71z M5.313,21.812h49.374v1.478H5.313V21.812
		L5.313,21.812z"/>
</g>
</svg>
