<?xml version="1.0" encoding="utf-8"?>
<!-- Generator: Adobe Illustrator 18.1.1, SVG Export Plug-In . SVG Version: 6.00 Build 0)  -->
<svg width="12" height="12" version="1.1" id="Слой_1" xmlns="http://www.w3.org/2000/svg" xmlns:xlink="http://www.w3.org/1999/xlink" x="0px" y="0px"
	 viewBox="0 0 12 12" enable-background="new 0 0 12 12" xml:space="preserve">
<path fill="#545454" d="M11.869,3.244L8.756,0.131C8.668,0.043,8.553,0,8.437,0c-0.115,0-0.23,0.043-0.318,0.131L0,8.25V12h3.75
	l8.119-8.119C11.957,3.793,12,3.678,12,3.563C12,3.447,11.957,3.332,11.869,3.244z M1.71,8.04l5.205-5.205l2.25,2.25L3.96,10.29
	L1.71,8.04z M1.125,9.045l1.83,1.83h-1.83V9.045z M9.96,4.29L7.71,2.04l0.727-0.727l2.25,2.25L9.96,4.29z"/>
</svg>
