<?xml version="1.0" encoding="utf-8"?>
<!-- Generator: Adobe Illustrator 18.1.1, SVG Export Plug-In . SVG Version: 6.00 Build 0)  -->
<svg width="10" height="14" version="1.1" id="Слой_1" xmlns="http://www.w3.org/2000/svg" xmlns:xlink="http://www.w3.org/1999/xlink" x="0px" y="0px"
	 viewBox="0 0 10 13" enable-background="new 0 0 10 13" xml:space="preserve">
<path fill="#545454" d="M8.269,0.772c0.511,0,0.925,0.397,0.925,0.887v9.682c0,0.49-0.414,0.887-0.925,0.887H1.731
	c-0.511,0-0.925-0.397-0.925-0.887V1.659c0-0.49,0.414-0.887,0.925-0.887H8.269 M8.269,0H1.731C0.777,0,0,0.744,0,1.659v9.682
	C0,12.256,0.777,13,1.731,13h6.537C9.223,13,10,12.256,10,11.341V1.659C10,0.744,9.223,0,8.269,0L8.269,0z"/>
<path fill="#545454" d="M6.877,2.326c0.348,0,0.63,0.27,0.63,0.603v5.997c0,0.333-0.282,0.603-0.63,0.603H3.123
	c-0.348,0-0.63-0.27-0.63-0.603V2.93c0-0.333,0.282-0.603,0.63-0.603H6.877 M6.877,1.554H3.123c-0.792,0-1.435,0.617-1.435,1.375
	v5.997c0,0.758,0.644,1.375,1.435,1.375h3.755c0.792,0,1.435-0.617,1.435-1.375V2.93C8.313,2.171,7.669,1.554,6.877,1.554
	L6.877,1.554z"/>
</svg>
