<?xml version="1.0" encoding="utf-8"?>
<!-- Generator: Adobe Illustrator 18.1.1, SVG Export Plug-In . SVG Version: 6.00 Build 0)  -->
<svg width="9" height="12" version="1.1" id="Слой_1" xmlns="http://www.w3.org/2000/svg" xmlns:xlink="http://www.w3.org/1999/xlink" x="0px" y="0px"
	 viewBox="0 0 10 12" enable-background="new 0 0 10 12" xml:space="preserve">
<g>
	<path fill="#E31E24" d="M9.528,12H0.454C0.203,12,0,11.794,0,11.539V0.463c0-0.255,0.203-0.461,0.454-0.461h5.895
		c0.117,0,0.23,0.046,0.315,0.129l3.179,3.108c0.089,0.087,0.139,0.207,0.139,0.333v7.968C9.982,11.794,9.779,12,9.528,12z
		 M0.907,11.077h8.167v-7.31L6.166,0.924H0.907V11.077z"/>
</g>
<g>
	<path fill="#E31E24" d="M9.546,4.032c-0.006,0-0.012,0-0.018,0H6.349c-0.251,0-0.454-0.206-0.454-0.461V0.463
		c0-0.185,0.109-0.352,0.276-0.425c0.167-0.075,0.36-0.037,0.492,0.092l3.112,3.042C9.91,3.252,10,3.4,10,3.571
		C10,3.826,9.797,4.032,9.546,4.032z M6.803,3.109h1.599L6.803,1.546V3.109z"/>
</g>
</svg>
