<?xml version="1.0" encoding="utf-8"?>
<!-- Generator: Adobe Illustrator 18.1.1, SVG Export Plug-In . SVG Version: 6.00 Build 0)  -->
<svg version="1.1" id="Слой_1" xmlns="http://www.w3.org/2000/svg" xmlns:xlink="http://www.w3.org/1999/xlink" x="0px" y="0px"
	 viewBox="0 0 20 20" enable-background="new 0 0 20 20" xml:space="preserve">
<path fill="#545454" d="M7.5,0C11.642,0,15,3.358,15,7.5c0,1.733-0.593,3.324-1.581,4.594l6.306,6.306
	C19.908,18.583,20,18.822,20,19.063c0,0.24-0.092,0.479-0.275,0.663C19.542,19.909,19.302,20,19.062,20
	c-0.24,0-0.48-0.091-0.663-0.275l-6.306-6.306C10.824,14.407,9.233,15,7.5,15C3.358,15,0,11.642,0,7.5C0,3.358,3.358,0,7.5,0z
	 M7.5,13.125c3.102,0,5.625-2.523,5.625-5.625c0-3.102-2.523-5.625-5.625-5.625c-3.102,0-5.625,2.523-5.625,5.625
	C1.875,10.602,4.398,13.125,7.5,13.125z"/>
</svg>
