<?xml version="1.0" encoding="utf-8"?>
<!-- Generator: Adobe Illustrator 18.1.1, SVG Export Plug-In . SVG Version: 6.00 Build 0)  -->
<svg version="1.1" id="Слой_1" xmlns="http://www.w3.org/2000/svg" xmlns:xlink="http://www.w3.org/1999/xlink" x="0px" y="0px"
	 viewBox="0 0 18 17" enable-background="new 0 0 18 17" xml:space="preserve">
<g>
	<path fill="#545454" d="M1.04,5.71h13.558l-2.097,2.122c-0.406,0.411-0.406,1.078,0,1.489c0.203,0.206,0.469,0.308,0.736,0.308
		s0.533-0.103,0.736-0.308l3.722-3.766C17.89,5.357,18,5.089,18,4.81s-0.11-0.547-0.305-0.745l-3.713-3.757
		c-0.406-0.411-1.065-0.411-1.471,0c-0.406,0.411-0.406,1.078,0,1.489l1.785,1.806H1.04C0.466,3.604,0,4.075,0,4.657
		S0.466,5.71,1.04,5.71z"/>
	<path fill="#545454" d="M16.855,11.185H3.609l1.993-2.017c0.406-0.411,0.406-1.078,0-1.489c-0.406-0.411-1.065-0.411-1.471,0
		l-3.722,3.767c-0.195,0.197-0.305,0.465-0.305,0.744s0.11,0.547,0.305,0.744l3.713,3.757C4.325,16.897,4.591,17,4.857,17
		c0.266,0,0.533-0.103,0.736-0.308c0.406-0.411,0.406-1.078,0-1.489l-1.889-1.912h13.152c0.575,0,1.04-0.471,1.04-1.053
		S17.43,11.185,16.855,11.185z"/>
</g>
</svg>
