<?xml version="1.0" encoding="utf-8"?>
<!-- Generator: Adobe Illustrator 18.1.1, SVG Export Plug-In . SVG Version: 6.00 Build 0)  -->
<svg width="37" height="37" version="1.1" id="Слой_1" xmlns="http://www.w3.org/2000/svg" xmlns:xlink="http://www.w3.org/1999/xlink" x="0px" y="0px"
	 viewBox="0 0 37 37" enable-background="new 0 0 37 37" xml:space="preserve">
<g>
	<g>
		<path fill="#3D3D3D" d="M0,18.5L0,18.5C0,28.717,8.283,37,18.5,37h0C28.717,37,37,28.717,37,18.5v0C37,8.283,28.717,0,18.5,0h0
			C8.283,0,0,8.283,0,18.5z"/>
	</g>
	<path fill="#FFFFFF" d="M18.921,25.655c0.012-2.056,0.006-4.112,0.007-6.168c0-0.088,0.018-0.175,0.026-0.255
		c0.05-0.01,0.073-0.018,0.095-0.018c0.476-0.002,0.953-0.003,1.429-0.003c0.772,0,0.78,0.001,0.891-0.759
		c0.093-0.639,0.164-1.282,0.252-1.977H18.96c0-0.745-0.023-1.44,0.008-2.134c0.019-0.415,0.307-0.712,0.734-0.763
		c0.504-0.061,1.016-0.057,1.525-0.078c0.168-0.007,0.336-0.001,0.495-0.001v-2.485c-0.509-0.033-0.994-0.08-1.48-0.092
		c-0.405-0.01-0.813-0.002-1.216,0.037c-1.414,0.138-2.466,1.051-2.776,2.441c-0.095,0.425-0.098,0.874-0.111,1.312
		c-0.018,0.576-0.004,1.153-0.004,1.761c-0.696,0-1.345,0.011-1.993-0.005c-0.331-0.008-0.324,0.133-0.324,0.588
		c0,0.522-0.004,1.038-0.004,1.524c0,0.512,0.005,0.649,0.379,0.636c0.635-0.022,1.27-0.007,1.914-0.007v6.87
		c-0.036,0,2.807,0.003,2.807,0.003C18.914,25.976,18.919,25.932,18.921,25.655z"/>
</g>
</svg>
