<?xml version="1.0" encoding="utf-8"?>
<!-- Generator: Adobe Illustrator 18.1.1, SVG Export Plug-In . SVG Version: 6.00 Build 0)  -->
<svg width="37" height="37" version="1.1" id="Слой_1" xmlns="http://www.w3.org/2000/svg" xmlns:xlink="http://www.w3.org/1999/xlink" x="0px" y="0px"
	 viewBox="0 0 37 37" enable-background="new 0 0 37 37" xml:space="preserve">
<g>
	<g>
		<path fill="#3D3D3D" d="M0,18.5L0,18.5C0,28.717,8.283,37,18.5,37h0C28.717,37,37,28.717,37,18.5v0C37,8.283,28.717,0,18.5,0h0
			C8.283,0,0,8.283,0,18.5z"/>
	</g>
	<path fill="#FFFFFF" d="M22.297,10.15h-7.594c-2.511,0-4.553,2.042-4.553,4.553v7.594c0,2.511,2.043,4.553,4.553,4.553h7.594
		c2.511,0,4.553-2.042,4.553-4.553v-7.594C26.85,12.192,24.808,10.15,22.297,10.15z M25.591,22.297c0,1.816-1.478,3.294-3.294,3.294
		h-7.594c-1.816,0-3.294-1.478-3.294-3.294v-7.594c0-1.816,1.478-3.294,3.294-3.294h7.594c1.816,0,3.294,1.478,3.294,3.294V22.297z"
		/>
	<circle fill="#FFFFFF" cx="23.002" cy="13.998" r="1.073"/>
	<path fill="#FFFFFF" d="M18.5,14.208c-2.366,0-4.292,1.925-4.292,4.292s1.925,4.292,4.292,4.292c2.366,0,4.292-1.925,4.292-4.292
		S20.866,14.208,18.5,14.208z M18.5,21.532c-1.672,0-3.032-1.36-3.032-3.032c0-1.672,1.36-3.032,3.032-3.032
		c1.672,0,3.032,1.36,3.032,3.032C21.532,20.172,20.172,21.532,18.5,21.532z"/>
</g>
</svg>
