<?xml version="1.0" encoding="utf-8"?>
<!-- Generator: Adobe Illustrator 18.1.1, SVG Export Plug-In . SVG Version: 6.00 Build 0)  -->
<svg width="37" height="37" version="1.1" id="Слой_1" xmlns="http://www.w3.org/2000/svg" xmlns:xlink="http://www.w3.org/1999/xlink" x="0px" y="0px"
	 viewBox="0 0 37 37" enable-background="new 0 0 37 37" xml:space="preserve">
<g>
	<g>
		<path fill="#3D3D3D" d="M0,18.5L0,18.5C0,28.717,8.283,37,18.5,37h0C28.717,37,37,28.717,37,18.5v0C37,8.283,28.717,0,18.5,0h0
			C8.283,0,0,8.283,0,18.5z"/>
	</g>
	<path fill="#FFFFFF" d="M24.324,18.285c0.476-0.639,0.973-1.263,1.419-1.922c0.282-0.415,0.522-0.867,0.721-1.328
		c0.186-0.431-0.027-0.709-0.496-0.74c-0.084-0.006-0.169-0.003-0.253-0.003c-0.778,0-1.556,0-2.335,0
		c-0.524,0-0.599,0.049-0.79,0.533c-0.36,0.91-0.801,1.778-1.372,2.573c-0.211,0.294-0.454,0.573-0.718,0.821
		c-0.212,0.199-0.392,0.15-0.504-0.119c-0.076-0.185-0.122-0.397-0.121-0.597c0.004-0.862,0.041-1.723,0.044-2.585
		c0.002-0.62-0.224-0.896-0.832-0.952c-0.623-0.057-1.252-0.06-1.879-0.058c-0.277,0.001-0.56,0.054-0.83,0.122
		c-0.276,0.07-0.507,0.224-0.624,0.546c0.091,0.038,0.14,0.069,0.193,0.079c0.46,0.089,0.693,0.384,0.748,0.831
		c0.035,0.287,0.081,0.579,0.068,0.866c-0.026,0.558-0.059,1.12-0.151,1.669c-0.062,0.368-0.33,0.43-0.62,0.189
		c-0.128-0.107-0.244-0.235-0.345-0.368c-0.707-0.931-1.25-1.956-1.69-3.036c-0.145-0.357-0.396-0.521-0.781-0.516
		c-0.722,0.008-1.444-0.002-2.166,0.004c-0.49,0.004-0.659,0.245-0.461,0.688c0.853,1.912,1.817,3.762,3.083,5.441
		c1.404,1.863,3.226,2.832,5.598,2.645c0.403-0.032,0.589-0.184,0.649-0.59c0.045-0.305,0.054-0.619,0.134-0.914
		c0.18-0.664,0.549-0.763,1.051-0.302c0.131,0.12,0.25,0.253,0.372,0.383c0.269,0.288,0.506,0.615,0.811,0.856
		c0.293,0.232,0.645,0.503,0.991,0.533c0.865,0.076,1.743,0.058,2.613,0.015c0.634-0.031,0.826-0.464,0.518-1.027
		c-0.063-0.115-0.124-0.236-0.212-0.33c-0.58-0.623-1.157-1.25-1.755-1.857c-0.605-0.614-0.631-0.812-0.112-1.507
		C24.3,18.314,24.313,18.3,24.324,18.285z"/>
</g>
</svg>
