<?xml version="1.0" encoding="utf-8"?>
<!-- Generator: Adobe Illustrator 18.1.1, SVG Export Plug-In . SVG Version: 6.00 Build 0)  -->
<svg width="37" height="37" version="1.1" id="Слой_1" xmlns="http://www.w3.org/2000/svg" xmlns:xlink="http://www.w3.org/1999/xlink" x="0px" y="0px"
	 viewBox="0 0 37 37" enable-background="new 0 0 37 37" xml:space="preserve">
<g>
	<g>
		<path fill="#3D3D3D" d="M0,18.5L0,18.5C0,28.717,8.283,37,18.5,37h0C28.717,37,37,28.717,37,18.5v0C37,8.283,28.717,0,18.5,0h0
			C8.283,0,0,8.283,0,18.5z"/>
	</g>
	<g>
		<g>
			<path fill="#FFFFFF" d="M18.5,25.111c-2.162,0-4.286-0.042-6.491-0.128c-0.862-0.035-1.695-0.706-1.898-1.527
				c-0.781-3.243-0.781-6.669-0.001-9.909c0.204-0.825,1.037-1.496,1.897-1.531c2.206-0.086,4.329-0.128,6.492-0.128
				c2.162,0,4.285,0.042,6.49,0.128c0.862,0.035,1.695,0.706,1.898,1.528c0.782,3.243,0.782,6.668,0.001,9.909
				c-0.204,0.825-1.037,1.496-1.897,1.53C22.785,25.069,20.662,25.111,18.5,25.111z M18.5,13.005c-2.148,0-4.257,0.041-6.447,0.127
				c-0.358,0.015-0.775,0.345-0.858,0.68c-0.739,3.066-0.739,6.311,0.001,9.38c0.082,0.332,0.499,0.662,0.858,0.677
				c2.189,0.085,4.298,0.127,6.446,0.127c2.148,0,4.257-0.041,6.447-0.127c0.358-0.014,0.775-0.345,0.858-0.68
				c0.739-3.067,0.739-6.311-0.001-9.38c-0.082-0.332-0.499-0.663-0.858-0.677C22.757,13.046,20.648,13.005,18.5,13.005z
				 M16.653,22.342c-0.386,0-0.699-0.298-0.714-0.679c-0.08-2.099-0.08-4.227,0-6.325c0.015-0.381,0.328-0.68,0.714-0.68
				c0.134,0,0.264,0.037,0.377,0.109c1.531,0.962,3.189,1.964,4.792,2.932l0.338,0.204c0.212,0.128,0.339,0.351,0.339,0.597
				c0,0.246-0.127,0.469-0.34,0.597l-0.351,0.212c-1.599,0.966-3.251,1.965-4.778,2.924C16.917,22.305,16.787,22.342,16.653,22.342z
				 M17.03,16.082c-0.047,1.607-0.047,3.228,0,4.836c1.286-0.8,2.639-1.619,3.961-2.418C19.668,17.701,18.316,16.882,17.03,16.082z"
				/>
		</g>
	</g>
</g>
</svg>
